<svg xmlns="http://www.w3.org/2000/svg" xmlns:xlink="http://www.w3.org/1999/xlink" width="512" height="512" viewBox="0 0 512 512">
  <defs>
    <clipPath id="clip-EazyGain_Icon_Blue">
      <rect width="512" height="512"/>
    </clipPath>
  </defs>
  <g id="EazyGain_Icon_Blue" data-name="EazyGain Icon Blue" clip-path="url(#clip-EazyGain_Icon_Blue)">
    <rect width="512" height="512" fill="#0b5cff"/>
    <g id="Group_1" data-name="Group 1" transform="translate(0 22.087)">
      <g id="Discover_edge" transform="translate(839.314 -214.306) rotate(-25)">
        <path id="Subtraction_9" data-name="Subtraction 9" d="M15.172,102.489v0h0A61.895,61.895,0,1,1,118.922,37.8a62,62,0,0,1-5.266,58.035,88.566,88.566,0,0,0-98.484,6.653Z" transform="translate(-755.276 85.976)" fill="#fcfcfc" stroke="#fff" stroke-width="5"/>
        <rect id="Rectangle_32" data-name="Rectangle 32" width="15" height="54" rx="7.5" transform="translate(-701.425 23.753)" fill="#fcfcfc" stroke="#fff" stroke-width="5"/>
        <rect id="Rectangle_33" data-name="Rectangle 33" width="14.854" height="54.466" rx="7.427" transform="translate(-592.962 72.872) rotate(60)" fill="#fcfcfc" stroke="#fff" stroke-width="5"/>
        <rect id="Rectangle_34" data-name="Rectangle 34" width="14.854" height="54.466" rx="7.427" transform="translate(-758.662 42.143) rotate(-30)" fill="#fcfcfc" stroke="#fff" stroke-width="5"/>
        <path id="Path_359" data-name="Path 359" d="M7.427,0a7.427,7.427,0,0,1,7.427,7.427V47.039A7.427,7.427,0,1,1,0,47.039V7.427A7.427,7.427,0,0,1,7.427,0Z" transform="translate(-801.804 87.065) rotate(-60)" fill="#fcfcfc" stroke="#fff" stroke-width="5"/>
        <rect id="Rectangle_36" data-name="Rectangle 36" width="14.854" height="54.466" rx="7.427" transform="translate(-641.601 34.354) rotate(30)" fill="#fcfcfc" stroke="#fff" stroke-width="5"/>
        <rect id="Rectangle_37" data-name="Rectangle 37" width="14.854" height="54.466" rx="7.427" transform="translate(-817.297 152.504) rotate(-90)" fill="#fcfcfc" stroke="#fff" stroke-width="5"/>
        <rect id="Rectangle_38" data-name="Rectangle 38" width="14.854" height="54.466" rx="7.427" transform="translate(-568.895 142.843) rotate(90)" fill="#fcfcfc" stroke="#fff" stroke-width="5"/>
      </g>
      <path id="Path_358" data-name="Path 358" d="M22.433-106H47.547a23.682,23.682,0,0,1,2.813.122,6.533,6.533,0,0,1,2.161.775q2.2,1.142,2.2,6.36,0,5.708-3.017,6.686a13.632,13.632,0,0,1-4.24.489H15.176q-5.708,0-6.686-3.1A12.822,12.822,0,0,1,8-98.827v-45.336q0-4.159,1.549-5.667t5.871-1.508H47.547a23.69,23.69,0,0,1,2.813.122,6.533,6.533,0,0,1,2.161.775q2.2,1.142,2.2,6.36,0,5.708-3.017,6.686a13.634,13.634,0,0,1-4.24.489H22.433v8.236H38.578a23.68,23.68,0,0,1,2.813.122,6.532,6.532,0,0,1,2.161.775q2.2,1.142,2.2,6.36,0,5.708-3.1,6.686a13.633,13.633,0,0,1-4.24.489H22.433Zm64.661-23.973q.489-4.566,6.442-4.566a16.886,16.886,0,0,1,4.729.489,3.42,3.42,0,0,1,2.161,1.712,7,7,0,0,1,.734,2.161,23.693,23.693,0,0,1,.122,2.813v28.539a23.691,23.691,0,0,1-.122,2.813,7.558,7.558,0,0,1-.693,2.161q-1.142,2.12-5.585,2.12t-5.952-1.1a4.4,4.4,0,0,1-1.753-3.221q-3.017,4.322-10.07,4.322T64.018-98.174a21.214,21.214,0,0,1-6.034-14.963,21,21,0,0,1,6.075-14.922q6.075-6.4,13.332-6.4a12.7,12.7,0,0,1,5.056.979,11.224,11.224,0,0,1,3.18,1.835A11.332,11.332,0,0,1,87.094-129.975Zm-14.84,16.96a6.767,6.767,0,0,0,2.12,4.852A6.93,6.93,0,0,0,79.511-106a6.486,6.486,0,0,0,5.015-2.2,7.066,7.066,0,0,0,2-4.852,7.53,7.53,0,0,0-1.916-4.933,6.364,6.364,0,0,0-5.137-2.283,6.6,6.6,0,0,0-5.219,2.283A7.405,7.405,0,0,0,72.254-113.015Zm56.181,7.094h13.943a9.969,9.969,0,0,1,4.689.815,4.039,4.039,0,0,1,1.916,2.365,13.9,13.9,0,0,1,.489,4.077,13.9,13.9,0,0,1-.489,4.077,3.42,3.42,0,0,1-1.712,2.161,7,7,0,0,1-2.161.734,23.691,23.691,0,0,1-2.813.122H112.861a6.81,6.81,0,0,1-4.974-2.12,6.9,6.9,0,0,1-2.12-5.055,6.769,6.769,0,0,1,2.12-5.015q2.12-2.079,6.523-5.993t7.991-7.053q3.588-3.139,3.914-3.465h-11.5q-4.648,0-5.871-1.549a7.525,7.525,0,0,1-1.386-4.729,17.151,17.151,0,0,1,.408-4.362,5.944,5.944,0,0,1,.978-2.12,3.843,3.843,0,0,1,1.631-1.1,16.216,16.216,0,0,1,4.24-.408h26.5a6.945,6.945,0,0,1,4.974,2.038,6.778,6.778,0,0,1,2.12,5.1,7.344,7.344,0,0,1-2.446,5.422Q143.52-119.619,128.435-105.921Zm63.031-28.131q4.811,2.12,4.811,5.137a6.117,6.117,0,0,1-.652,2.772,13.459,13.459,0,0,0-.652,1.386L173.608-76.974q-.652,1.549-1.1,2.365a5.015,5.015,0,0,1-1.427,1.549,3.963,3.963,0,0,1-2.446.734,12.29,12.29,0,0,1-4.322-1.223Q159.5-75.669,159.5-78.6q0-1.957,7.828-18.673L151.1-124.593a9.122,9.122,0,0,1-1.631-4q0-2.609,4.4-5.219a9.56,9.56,0,0,1,4.322-1.631,4.474,4.474,0,0,1,2.528.652,4.9,4.9,0,0,1,1.427,1.345q.449.693,4.485,7.583t7.706,12.843q.408-1.3,4.4-10.07t4.281-9.336a8.292,8.292,0,0,1,.938-1.386,3.531,3.531,0,0,1,2.976-1.386A11.618,11.618,0,0,1,191.465-134.052Zm39.629,6.442h14.351q4.4.163,5.382,2.283a10.08,10.08,0,0,1,.815,4.566v17.939a7.123,7.123,0,0,1-2.283,4.974q-6.849,7.094-20.548,7.094-12.15,0-21.119-9.173a30.515,30.515,0,0,1-8.969-22.138,28.647,28.647,0,0,1,9.133-21.649,30.209,30.209,0,0,1,21.527-8.684,29.975,29.975,0,0,1,18.183,6.36,4.568,4.568,0,0,1,2.2,3.629,8.272,8.272,0,0,1-1.875,4.607q-3.18,4.322-5.789,4.322-1.549,0-4.974-2.242a14.55,14.55,0,0,0-8.154-2.242,15.921,15.921,0,0,0-11.008,4.362,14.683,14.683,0,0,0-4.811,11.416,16.387,16.387,0,0,0,4.892,11.986,15.236,15.236,0,0,0,11.089,4.933,21.149,21.149,0,0,0,8.072-1.468v-8.888h-6.442a7.229,7.229,0,0,1-3.588-.652,3.053,3.053,0,0,1-1.386-1.916,14.266,14.266,0,0,1-.326-3.425,13.221,13.221,0,0,1,.367-3.465,2.682,2.682,0,0,1,1.345-1.794A8.814,8.814,0,0,1,231.094-127.61Zm54.143-2.365q.489-4.566,6.442-4.566a16.886,16.886,0,0,1,4.729.489,3.42,3.42,0,0,1,2.161,1.712,7,7,0,0,1,.734,2.161,23.7,23.7,0,0,1,.122,2.813v28.539a23.7,23.7,0,0,1-.122,2.813,7.558,7.558,0,0,1-.693,2.161q-1.142,2.12-5.586,2.12t-5.952-1.1a4.4,4.4,0,0,1-1.753-3.221q-3.017,4.322-10.07,4.322t-13.087-6.442a21.214,21.214,0,0,1-6.034-14.963,21,21,0,0,1,6.075-14.922q6.075-6.4,13.332-6.4a12.7,12.7,0,0,1,5.056.979,11.225,11.225,0,0,1,3.18,1.835A11.334,11.334,0,0,1,285.237-129.975Zm-14.84,16.96a6.767,6.767,0,0,0,2.12,4.852A6.93,6.93,0,0,0,277.653-106a6.486,6.486,0,0,0,5.015-2.2,7.066,7.066,0,0,0,2-4.852,7.53,7.53,0,0,0-1.916-4.933,6.364,6.364,0,0,0-5.137-2.283,6.6,6.6,0,0,0-5.219,2.283A7.405,7.405,0,0,0,270.4-113.015Zm34.736-14.351a23.687,23.687,0,0,1,.122-2.813,7.56,7.56,0,0,1,.693-2.161q1.142-2.12,6.36-2.12,3.914,0,5.545,1.386a4.494,4.494,0,0,1,1.468,3.506q.081.815.081,2.365v28.539a23.7,23.7,0,0,1-.122,2.813,6.534,6.534,0,0,1-.775,2.161q-1.06,2.12-6.279,2.12-5.137,0-6.279-2.2a7.622,7.622,0,0,1-.693-2.12,23.538,23.538,0,0,1-.122-2.854Zm13.413-15.126a3.456,3.456,0,0,1-2.161,1.672,14.075,14.075,0,0,1-4.118.489,14.075,14.075,0,0,1-4.118-.489,3.42,3.42,0,0,1-2.161-1.712,6.993,6.993,0,0,1-.734-2.161,23.688,23.688,0,0,1-.122-2.813,23.688,23.688,0,0,1,.122-2.813,6.663,6.663,0,0,1,.693-2.079q1.142-2.2,6.36-2.2,5.137,0,6.2,2.2a6.534,6.534,0,0,1,.775,2.161,23.7,23.7,0,0,1,.122,2.813,23.7,23.7,0,0,1-.122,2.813A6.581,6.581,0,0,1,318.546-142.491ZM349-134.541a17.244,17.244,0,0,1,13.577,6.238A22.375,22.375,0,0,1,368-113.1v14.351a23.687,23.687,0,0,1-.122,2.813,6.66,6.66,0,0,1-.693,2.079q-1.142,2.2-6.36,2.2-5.789,0-6.686-3.017a13.279,13.279,0,0,1-.489-4.159v-14.351a6.967,6.967,0,0,0-1.916-5.219,7.027,7.027,0,0,0-5.137-1.875,7.139,7.139,0,0,0-5.219,1.957,6.869,6.869,0,0,0-2,5.137v14.433a23.68,23.68,0,0,1-.122,2.813,5.8,5.8,0,0,1-.775,2.079q-1.06,2.2-6.279,2.2-5.137,0-6.279-2.2a7.559,7.559,0,0,1-.693-2.161,23.69,23.69,0,0,1-.122-2.813v-28.865a22.754,22.754,0,0,1,.122-2.732,5.8,5.8,0,0,1,.775-2.079q1.141-2.039,6.279-2.038,4.974,0,6.116,1.875a6.483,6.483,0,0,1,.815,3.343,8.3,8.3,0,0,1,1.468-1.631,14.3,14.3,0,0,1,2.2-1.712A10.681,10.681,0,0,1,349-134.541Z" transform="translate(68 456.506)" fill="#fff"/>
    </g>
  </g>
</svg>
