<svg xmlns="http://www.w3.org/2000/svg" xmlns:xlink="http://www.w3.org/1999/xlink" width="1083" height="247" viewBox="0 0 1083 247">
  <defs>
    <clipPath id="clip-EazyGain_Blue">
      <rect width="1083" height="247"/>
    </clipPath>
  </defs>
  <g id="EazyGain_Blue" data-name="EazyGain Blue" clip-path="url(#clip-EazyGain_Blue)">
    <g id="Discover_edge" transform="translate(702.445 -287.811) rotate(-25)">
      <path id="Subtraction_9" data-name="Subtraction 9" d="M15.172,102.489v0h0A61.895,61.895,0,1,1,118.922,37.8a62,62,0,0,1-5.266,58.035,88.566,88.566,0,0,0-98.484,6.653Z" transform="translate(-755.276 85.976)" fill="#0b5cff" stroke="#0b5cff" stroke-width="5"/>
      <rect id="Rectangle_32" data-name="Rectangle 32" width="15" height="54" rx="7.5" transform="translate(-701.425 23.753)" fill="#0b5cff" stroke="#0b5cff" stroke-width="5"/>
      <rect id="Rectangle_33" data-name="Rectangle 33" width="14.854" height="54.466" rx="7.427" transform="translate(-592.962 72.872) rotate(60)" fill="#0b5cff" stroke="#0b5cff" stroke-width="5"/>
      <rect id="Rectangle_34" data-name="Rectangle 34" width="14.854" height="54.466" rx="7.427" transform="translate(-758.662 42.143) rotate(-30)" fill="#0b5cff" stroke="#0b5cff" stroke-width="5"/>
      <path id="Path_359" data-name="Path 359" d="M7.427,0a7.427,7.427,0,0,1,7.427,7.427V47.039A7.427,7.427,0,1,1,0,47.039V7.427A7.427,7.427,0,0,1,7.427,0Z" transform="translate(-801.804 87.065) rotate(-60)" fill="#0b5cff" stroke="#0b5cff" stroke-width="5"/>
      <rect id="Rectangle_36" data-name="Rectangle 36" width="14.854" height="54.466" rx="7.427" transform="translate(-641.601 34.354) rotate(30)" fill="#0b5cff" stroke="#0b5cff" stroke-width="5"/>
      <rect id="Rectangle_37" data-name="Rectangle 37" width="14.854" height="54.466" rx="7.427" transform="translate(-817.297 152.504) rotate(-90)" fill="#0b5cff" stroke="#0b5cff" stroke-width="5"/>
      <rect id="Rectangle_38" data-name="Rectangle 38" width="14.854" height="54.466" rx="7.427" transform="translate(-568.895 142.843) rotate(90)" fill="#0b5cff" stroke="#0b5cff" stroke-width="5"/>
    </g>
    <path id="Path_358" data-name="Path 358" d="M40.072-46.6h55.81a52.641,52.641,0,0,1,6.251.272,14.518,14.518,0,0,1,4.8,1.721q4.892,2.537,4.892,14.134,0,12.684-6.7,14.858A30.3,30.3,0,0,1,95.7-14.532H23.946q-12.684,0-14.858-6.886Q8-24.317,8-30.659V-131.406Q8-140.648,11.443-144t13.046-3.352H95.882a52.64,52.64,0,0,1,6.251.272,14.518,14.518,0,0,1,4.8,1.721q4.892,2.537,4.892,14.134,0,12.684-6.7,14.858A30.3,30.3,0,0,1,95.7-115.28H40.072v18.3H75.95a52.64,52.64,0,0,1,6.251.272A14.518,14.518,0,0,1,87-94.985Q91.9-92.448,91.9-80.851q0,12.684-6.886,14.858a30.3,30.3,0,0,1-9.422,1.087H40.072ZM183.764-99.877q1.087-10.147,14.315-10.147a37.523,37.523,0,0,1,10.51,1.087,7.6,7.6,0,0,1,4.8,3.805,15.545,15.545,0,0,1,1.631,4.8,52.643,52.643,0,0,1,.272,6.251v63.42a52.636,52.636,0,0,1-.272,6.251,16.794,16.794,0,0,1-1.54,4.8q-2.537,4.711-12.412,4.711t-13.228-2.446a9.784,9.784,0,0,1-3.9-7.157q-6.7,9.6-22.378,9.6T132.485-29.209q-13.409-14.315-13.409-33.25t13.5-33.16q13.5-14.224,29.626-14.224a28.233,28.233,0,0,1,11.234,2.174,24.942,24.942,0,0,1,7.067,4.077A25.184,25.184,0,0,1,183.764-99.877Zm-32.978,37.69A15.037,15.037,0,0,0,155.5-51.406a15.4,15.4,0,0,0,11.416,4.8A14.413,14.413,0,0,0,178.057-51.5,15.7,15.7,0,0,0,182.5-62.278a16.733,16.733,0,0,0-4.258-10.963,14.141,14.141,0,0,0-11.416-5.074,14.676,14.676,0,0,0-11.6,5.074A16.456,16.456,0,0,0,150.786-62.188ZM275.633-46.423h30.985q7.248,0,10.419,1.812a8.976,8.976,0,0,1,4.258,5.255,30.89,30.89,0,0,1,1.087,9.06,30.89,30.89,0,0,1-1.087,9.06,7.6,7.6,0,0,1-3.805,4.8,15.545,15.545,0,0,1-4.8,1.631,52.64,52.64,0,0,1-6.251.272H241.024a15.133,15.133,0,0,1-11.053-4.711,15.337,15.337,0,0,1-4.711-11.234,15.042,15.042,0,0,1,4.711-11.144q4.711-4.621,14.5-13.318t17.758-15.674q7.973-6.976,8.7-7.7H245.373q-10.328,0-13.046-3.443-3.08-3.986-3.08-10.51a38.114,38.114,0,0,1,.906-9.694,13.209,13.209,0,0,1,2.174-4.711,8.54,8.54,0,0,1,3.624-2.446,36.036,36.036,0,0,1,9.422-.906h58.89a15.433,15.433,0,0,1,11.053,4.53,15.063,15.063,0,0,1,4.711,11.325,16.319,16.319,0,0,1-5.436,12.05Q309.155-76.865,275.633-46.423ZM415.7-108.937q10.691,4.711,10.691,11.416a13.592,13.592,0,0,1-1.45,6.161,29.905,29.905,0,0,0-1.45,3.08L376.018,17.9q-1.45,3.443-2.446,5.255A11.144,11.144,0,0,1,370.4,26.6a8.805,8.805,0,0,1-5.436,1.631q-3.262,0-9.6-2.718Q344.67,20.8,344.67,14.279q0-4.349,17.4-41.495l-36.059-60.7q-3.624-5.98-3.624-8.879,0-5.8,9.785-11.6,6.161-3.624,9.6-3.624a9.943,9.943,0,0,1,5.617,1.45,10.888,10.888,0,0,1,3.171,2.99q1,1.54,9.966,16.852t17.123,28.539q.906-2.9,9.785-22.378t9.513-20.747a18.42,18.42,0,0,1,2.084-3.08,7.846,7.846,0,0,1,6.614-3.08A25.819,25.819,0,0,1,415.7-108.937Zm88.063,14.315h31.891q9.785.362,11.959,5.074,1.812,3.443,1.812,10.147v39.864q0,5.8-5.074,11.053Q529.133-12.72,498.691-12.72q-27,0-46.931-20.385T431.828-82.3q0-28.811,20.294-48.109t47.837-19.3q21.382,0,40.408,14.134,4.892,3.624,4.892,8.063t-4.168,10.238q-7.067,9.6-12.865,9.6-3.443,0-11.053-4.983a32.334,32.334,0,0,0-18.12-4.983,35.379,35.379,0,0,0-24.462,9.694Q463.9-98.247,463.9-82.573a36.416,36.416,0,0,0,10.872,26.636q10.872,10.963,24.643,10.963a47,47,0,0,0,17.939-3.262V-67.986H503.04q-5.617,0-7.973-1.45a6.784,6.784,0,0,1-3.08-4.258,31.7,31.7,0,0,1-.725-7.61,29.376,29.376,0,0,1,.815-7.7,5.96,5.96,0,0,1,2.99-3.986A19.587,19.587,0,0,1,503.764-94.623Zm120.317-5.255q1.087-10.147,14.315-10.147a37.523,37.523,0,0,1,10.51,1.087,7.6,7.6,0,0,1,4.8,3.805,15.547,15.547,0,0,1,1.631,4.8,52.638,52.638,0,0,1,.272,6.251v63.42a52.638,52.638,0,0,1-.272,6.251,16.8,16.8,0,0,1-1.54,4.8q-2.537,4.711-12.412,4.711t-13.228-2.446a9.784,9.784,0,0,1-3.9-7.157q-6.7,9.6-22.378,9.6T572.8-29.209q-13.409-14.315-13.409-33.25t13.5-33.16q13.5-14.224,29.626-14.224a28.233,28.233,0,0,1,11.234,2.174,24.941,24.941,0,0,1,7.067,4.077A25.183,25.183,0,0,1,624.082-99.877ZM591.1-62.188a15.037,15.037,0,0,0,4.711,10.781,15.4,15.4,0,0,0,11.416,4.8A14.413,14.413,0,0,0,618.374-51.5a15.7,15.7,0,0,0,4.439-10.781,16.733,16.733,0,0,0-4.258-10.963,14.141,14.141,0,0,0-11.416-5.074,14.676,14.676,0,0,0-11.6,5.074A16.456,16.456,0,0,0,591.1-62.188Zm77.191-31.891a52.624,52.624,0,0,1,.272-6.251,16.8,16.8,0,0,1,1.54-4.8q2.537-4.711,14.134-4.711,8.7,0,12.322,3.08,3.08,2.537,3.262,7.792.181,1.812.181,5.255V-30.3a52.624,52.624,0,0,1-.272,6.251,14.517,14.517,0,0,1-1.721,4.8q-2.356,4.711-13.952,4.711-11.416,0-13.952-4.892a16.933,16.933,0,0,1-1.54-4.711,52.294,52.294,0,0,1-.272-6.342ZM698.1-127.692a7.679,7.679,0,0,1-4.8,3.715,31.279,31.279,0,0,1-9.151,1.087A31.28,31.28,0,0,1,675-123.977a7.6,7.6,0,0,1-4.8-3.805,15.544,15.544,0,0,1-1.631-4.8,52.625,52.625,0,0,1-.272-6.251,52.624,52.624,0,0,1,.272-6.251,14.8,14.8,0,0,1,1.54-4.621q2.537-4.892,14.134-4.892,11.416,0,13.771,4.892a14.517,14.517,0,0,1,1.721,4.8,52.625,52.625,0,0,1,.272,6.251,52.625,52.625,0,0,1-.272,6.251A14.625,14.625,0,0,1,698.1-127.692Zm67.678,17.667q18.12,0,30.17,13.862T808-62.369v31.891a52.651,52.651,0,0,1-.272,6.251,14.8,14.8,0,0,1-1.54,4.621q-2.537,4.892-14.134,4.892-12.865,0-14.859-6.7a29.513,29.513,0,0,1-1.087-9.241V-62.55q0-7.429-4.258-11.6t-11.416-4.168q-7.157,0-11.6,4.349A15.264,15.264,0,0,0,744.4-62.55v32.072a52.64,52.64,0,0,1-.272,6.251,12.885,12.885,0,0,1-1.721,4.621q-2.356,4.892-13.952,4.892-11.416,0-13.953-4.892a16.8,16.8,0,0,1-1.54-4.8,52.624,52.624,0,0,1-.272-6.251V-94.8a50.545,50.545,0,0,1,.272-6.07,12.885,12.885,0,0,1,1.721-4.621q2.537-4.53,13.952-4.53,11.053,0,13.59,4.168a14.407,14.407,0,0,1,1.812,7.429,18.447,18.447,0,0,1,3.262-3.624,31.778,31.778,0,0,1,4.892-3.805A23.735,23.735,0,0,1,765.78-110.025Z" transform="translate(258.5 200.169)" fill="#0b5cff"/>
  </g>
</svg>
